<svg width="23" height="24" viewBox="0 0 23 24" fill="none" xmlns="http://www.w3.org/2000/svg">
<path d="M8.96453 14.4321L9.45673 16.565C9.67548 17.4947 10.3561 18.2239 11.225 18.4609L13.2181 18.9895L11.225 19.5182C10.3561 19.7491 9.67548 20.4783 9.45673 21.4141L8.96453 23.547L8.47232 21.4141C8.25357 20.4844 7.57299 19.7552 6.70405 19.5182L4.71094 18.9895L6.70405 18.4609C7.57299 18.23 8.25357 17.5008 8.47232 16.565L8.96453 14.4321Z" fill="#FF99D1" stroke="#FF36AE" stroke-width="0.911483" stroke-linecap="round" stroke-linejoin="round"/>
<path d="M5.6221 0.455566L6.22368 2.87404C6.48497 3.93136 7.31138 4.75777 8.3687 5.01906L10.7872 5.62064L8.3687 6.22222C7.31138 6.48351 6.48497 7.30992 6.22368 8.36724L5.6221 10.7857L5.02053 8.36724C4.75923 7.30992 3.93282 6.48351 2.8755 6.22222L0.457031 5.62064L2.8755 5.01906C3.93282 4.75777 4.75923 3.93136 5.02053 2.87404L5.6221 0.455566Z" fill="#FFB3E4" stroke="#FF99D1" stroke-width="0.911483" stroke-linecap="round" stroke-linejoin="round"/>
<path d="M20.0808 17.4321L20.2935 18.2889C20.3846 18.6657 20.6763 18.9513 21.047 19.0424L21.9037 19.2551L21.047 19.4678C20.6702 19.5589 20.3846 19.8506 20.2935 20.2213L20.0808 21.0781L19.8681 20.2213C19.777 19.8445 19.4853 19.5589 19.1146 19.4678L18.2578 19.2551L19.1146 19.0424C19.4914 18.9513 19.777 18.6596 19.8681 18.2889L20.0808 17.4321Z" fill="#FF99D1" stroke="#FF0083" stroke-width="0.911483" stroke-linecap="round" stroke-linejoin="round"/>
</svg>
